<svg width="103" height="72" viewBox="0 0 103 72" fill="none" xmlns="http://www.w3.org/2000/svg">
<path d="M15.5284 20.6546C14.5843 21.3817 13.8419 22.5792 13.0772 23.6528C7.46126 31.5407 4.6034 40.3636 4.50366 50.1216C4.50366 50.1362 4.49783 50.1501 4.48744 50.1604C4.47705 50.1707 4.46295 50.1765 4.44826 50.1765L0.0656147 50.1754C0.0505219 50.1754 0.0360305 50.1698 0.0252554 50.1597C0.0144803 50.1497 0.00828114 50.136 0.00799162 50.1216C-0.141606 42.6534 1.81867 34.831 5.07989 28.2127C14.5533 8.98952 34.7555 -1.91669 56.1701 0.278811C67.0408 1.39374 76.4987 5.56504 84.5437 12.7927C94.3517 21.6032 100.297 33.3429 101.29 46.4303C101.376 47.5741 101.338 48.8747 101.368 50.0931C101.369 50.1029 101.367 50.1125 101.363 50.1216C101.359 50.1306 101.354 50.1388 101.347 50.1458C101.34 50.1527 101.332 50.1582 101.323 50.162C101.314 50.1657 101.304 50.1677 101.294 50.1677H82.682C82.6753 50.1676 82.6687 50.1661 82.6626 50.1633C82.6565 50.1605 82.6511 50.1564 82.6468 50.1514C82.6425 50.1464 82.6394 50.1406 82.6376 50.1343C82.6358 50.128 82.6355 50.1215 82.6366 50.115C82.7452 49.5514 82.938 48.9087 82.9015 48.3856C82.7197 45.7756 79.4663 44.3247 77.4328 46.0498C76.635 46.7264 76.0078 47.7682 76.1884 48.8155C76.2653 49.2578 76.3572 49.6921 76.4643 50.1183C76.4664 50.1261 76.4666 50.1342 76.4649 50.142C76.4632 50.1499 76.4596 50.1572 76.4544 50.1635C76.4492 50.1698 76.4426 50.1748 76.4351 50.1782C76.4276 50.1816 76.4194 50.1833 76.4112 50.183L75.2532 50.1677C75.2353 50.1673 75.218 50.1635 75.2021 50.1565C75.1863 50.1496 75.1724 50.1395 75.1612 50.1271C74.9854 49.929 74.8849 49.7235 74.8598 49.5108C74.575 47.0576 76.0355 44.7184 78.4723 44.09C79.8508 43.7347 81.4022 44.3796 82.5469 45.0957C82.6961 45.1893 82.7367 45.1556 82.6688 44.9948C82.4479 44.4757 82.1383 44.0144 81.7401 43.6108C77.8573 39.6782 71.5919 40.7793 69.4787 45.8842C68.9313 47.2078 69.0244 48.7563 69.205 50.1589C69.2058 50.1656 69.2052 50.1724 69.203 50.1788C69.2009 50.1852 69.1974 50.191 69.1928 50.1959C69.1881 50.2009 69.1824 50.2047 69.1761 50.2072C69.1698 50.2097 69.163 50.2108 69.1562 50.2105L67.6093 50.1161C67.5937 50.1151 67.5789 50.1086 67.5677 50.0977C67.5565 50.0869 67.5496 50.0724 67.5484 50.0569C67.1273 44.8632 69.9286 40.1531 75.559 39.6958C76.4411 39.6241 77.2836 39.6702 78.0866 39.8339C79.0241 40.0248 80.0669 40.5511 81.0077 40.9525C81.1421 41.0103 81.1706 40.9774 81.093 40.8538C80.9061 40.5599 80.683 40.2967 80.4237 40.0642C76.8511 36.8587 71.8867 36.1371 67.6503 38.5552C64.0744 40.5961 62.1939 44.1372 61.9013 48.1674C61.8762 48.5103 61.8633 49.1705 61.8625 50.1479C61.8626 50.1552 61.8611 50.1624 61.8583 50.169C61.8555 50.1757 61.8514 50.1817 61.8462 50.1867C61.841 50.1918 61.8349 50.1957 61.8282 50.1982C61.8215 50.2008 61.8143 50.202 61.8071 50.2017L60.0552 50.1512C60.0403 50.151 60.0261 50.1449 60.0155 50.1342C60.005 50.1236 59.999 50.1092 59.9987 50.0942C59.8779 44.8292 61.6853 40.1739 66.2153 37.2722C68.7784 35.6316 71.695 34.9363 74.7456 35.3475C76.3314 35.5614 77.6667 36.2918 79.1338 36.8467C79.2347 36.885 79.269 36.8116 79.2092 36.737C78.6241 36.0099 77.8672 35.4857 77.0483 34.9933C74.9795 33.7497 72.905 32.9514 70.4605 32.7605C61.3949 32.0554 54.2807 39.2089 54.1267 47.9777C54.1142 48.6912 54.1241 49.4062 54.1566 50.1227C54.1569 50.1295 54.1558 50.1363 54.1532 50.1427C54.1507 50.1491 54.1468 50.1549 54.1419 50.1598C54.1369 50.1647 54.1309 50.1686 54.1243 50.1713C54.1177 50.174 54.1106 50.1754 54.1035 50.1754L52.0434 50.1644C52.0286 50.1644 52.0144 50.1587 52.0039 50.1484C51.9933 50.1381 51.9872 50.1242 51.9869 50.1096C51.9105 45.3633 52.7992 40.6509 55.9463 36.9026C59.9821 32.096 66.2153 29.6241 72.4529 30.9456C73.6896 31.2077 75.0648 31.7845 76.3635 32.2221C76.384 32.229 76.4046 32.2316 76.4223 32.2294C76.4399 32.2272 76.4535 32.2204 76.461 32.21C76.604 32.017 74.8387 31.0651 74.6526 30.9774C60.4331 24.29 46.4408 35.3519 47.2475 50.1337C47.2478 50.1406 47.2466 50.1476 47.244 50.1541C47.2414 50.1606 47.2374 50.1665 47.2324 50.1715C47.2273 50.1766 47.2212 50.1805 47.2145 50.1833C47.2077 50.186 47.2005 50.1874 47.1932 50.1874L44.8705 50.1808C44.8625 50.1808 44.8545 50.1793 44.8471 50.1763C44.8397 50.1733 44.833 50.1689 44.8274 50.1633C44.8218 50.1578 44.8175 50.1513 44.8146 50.1441C44.8117 50.1369 44.8104 50.1293 44.8107 50.1216C44.8358 49.1982 44.8657 48.2705 44.9004 47.3383C45.2927 36.8214 53.4031 27.8103 64.0888 26.7191C66.5743 26.4658 68.498 26.7969 70.7641 27.138C70.9754 27.1694 71.1874 27.1841 71.4002 27.1819C71.4386 27.1819 71.4434 27.1694 71.4146 27.1446C71.1782 26.9443 70.8598 26.7874 70.4594 26.6741C68.3909 26.0878 66.3959 25.7577 64.4744 25.6838C50.4167 25.1454 40.4203 36.726 40.7472 50.1227C40.7473 50.1297 40.746 50.1367 40.7434 50.1432C40.7407 50.1497 40.7367 50.1556 40.7317 50.1607C40.7266 50.1657 40.7206 50.1696 40.7139 50.1723C40.7073 50.1751 40.7001 50.1765 40.6929 50.1765L38.1353 50.1688C38.1115 50.1688 38.0887 50.1594 38.0719 50.1428C38.055 50.1261 38.0456 50.1035 38.0456 50.08C38.0777 45.5705 38.7149 41.3671 40.8081 37.3171C42.3529 34.3287 44.3087 31.438 46.9438 29.2874C51.1658 25.8407 55.8366 23.5684 61.3207 23.0957C63.7586 22.8852 66.1998 23.314 68.6354 23.36C68.6764 23.3611 68.785 23.3282 68.6587 23.2942C64.8342 22.2714 60.972 22.134 57.0721 22.8819C52.7837 23.7044 48.5406 25.4185 45.2573 28.1667C38.6451 33.7026 34.6802 41.4208 34.9262 50.1183C34.9265 50.1283 34.9247 50.1381 34.921 50.1474C34.9173 50.1566 34.9117 50.165 34.9045 50.1721C34.8974 50.1792 34.8889 50.1848 34.8794 50.1885C34.87 50.1923 34.8599 50.1942 34.8497 50.194L32.0395 50.1545C32.0322 50.1544 32.0251 50.1528 32.0184 50.1499C32.0117 50.147 32.0057 50.1429 32.0007 50.1377C31.9956 50.1325 31.9917 50.1264 31.989 50.1197C31.9864 50.113 31.9851 50.1058 31.9852 50.0986C32.0584 43.545 33.7715 37.2733 37.7021 31.9282C39.4684 29.5265 41.5406 27.2904 43.912 25.5139C48.1949 22.3062 53.4242 20.103 58.8529 19.7904C60.6769 19.6852 62.5023 19.6245 64.3292 19.6084C64.7049 19.6051 64.4168 19.4965 64.3481 19.4823C62.0653 19.0305 59.3194 19.1818 57.1142 19.3715C50.3292 19.9549 44.0106 23.0003 39.054 27.5602C32.6756 33.4284 29.2537 41.5162 29.4465 50.1348C29.4467 50.1398 29.4458 50.1447 29.444 50.1494C29.4423 50.1541 29.4396 50.1583 29.4362 50.1619C29.4328 50.1655 29.4287 50.1683 29.4242 50.1702C29.4197 50.1722 29.4148 50.1732 29.4099 50.1732L26.3005 50.1556C26.2855 50.1553 26.2713 50.1494 26.2609 50.1391C26.2505 50.1288 26.2448 50.115 26.2451 50.1008C26.295 43.8806 27.6857 37.8293 30.9646 32.5489C32.1814 30.5888 33.5872 28.7037 35.1822 26.8934C39.7731 21.68 46.976 17.8702 53.6125 16.699C54.0122 16.6281 54.3646 16.5082 54.6697 16.3393C54.8418 16.2442 54.8296 16.2037 54.6331 16.2175C48.5562 16.6463 42.5147 19.5185 37.6943 23.0903C29.3002 29.3105 24.1707 39.744 24.2106 50.1227C24.2106 50.1297 24.2092 50.1367 24.2064 50.1431C24.2036 50.1496 24.1995 50.1554 24.1943 50.1603C24.1892 50.1652 24.183 50.1691 24.1763 50.1717C24.1696 50.1743 24.1624 50.1755 24.1552 50.1754L20.7721 50.1655C20.765 50.1655 20.758 50.1641 20.7515 50.1613C20.7449 50.1585 20.739 50.1545 20.7341 50.1494C20.7291 50.1443 20.7252 50.1382 20.7226 50.1316C20.72 50.1249 20.7187 50.1178 20.7189 50.1107C21.2818 33.276 31.3647 19.0206 47.8835 14.1536C48.5477 13.9577 49.2125 13.7658 49.8782 13.5779C50.0451 13.5304 50.2017 13.4631 50.348 13.3761C50.3805 13.3564 50.3776 13.3487 50.3391 13.3531C49.1653 13.4854 47.9493 13.7493 46.6912 14.1449C43.2139 15.2393 39.9146 16.7816 36.7934 18.7716C30.7242 22.6406 25.854 28.4024 22.7567 34.8146C20.4215 39.6479 19.2661 44.7495 19.2905 50.1194C19.2905 50.134 19.2848 50.1479 19.2746 50.1582C19.2644 50.1685 19.2506 50.1743 19.2362 50.1743L15.5761 50.1622C15.569 50.1622 15.562 50.1608 15.5555 50.158C15.5489 50.1553 15.543 50.1512 15.5381 50.1461C15.5331 50.141 15.5292 50.1349 15.5266 50.1283C15.524 50.1216 15.5227 50.1145 15.5229 50.1074C15.7615 41.5783 18.2733 33.8411 23.0581 26.8956C26.1243 22.4465 30.2909 18.3418 35.0115 15.5278C36.2844 14.7696 37.558 14.0133 38.8323 13.2588C38.8648 13.2398 38.8623 13.2328 38.8246 13.2379C38.5084 13.2811 38.2081 13.3666 37.9237 13.4946C35.0004 14.8138 32.239 16.7461 29.7091 18.6916C20.1482 26.0457 14.3981 38.155 14.4136 50.08C14.4136 50.0915 14.4114 50.1029 14.4069 50.1135C14.4024 50.1242 14.3959 50.1338 14.3877 50.142C14.3795 50.1501 14.3697 50.1566 14.3589 50.161C14.3482 50.1654 14.3366 50.1677 14.325 50.1677L10.461 50.1666C10.4461 50.1666 10.4317 50.1609 10.421 50.1507C10.4102 50.1404 10.4039 50.1265 10.4033 50.1118C10.3908 49.6724 10.3926 49.237 10.4089 48.8056C10.8211 37.9323 15.1672 27.4385 22.8376 19.6128C23.6229 18.8115 24.4577 17.9747 25.342 17.1025C25.3596 17.0854 25.3727 17.0641 25.3798 17.0405C25.387 17.017 25.3881 16.9919 25.383 16.9677C25.3597 16.8525 24.3668 17.6991 24.2993 17.7583C21.7738 20.0087 19.5066 22.5025 17.5408 25.2847C12.3614 32.6158 9.45035 41.0819 9.56338 50.0613C9.56352 50.0751 9.56094 50.0888 9.55577 50.1015C9.5506 50.1143 9.54295 50.1259 9.53326 50.1357C9.52357 50.1455 9.51204 50.1533 9.49933 50.1586C9.48662 50.1639 9.47298 50.1666 9.45921 50.1666L5.30373 50.1655C5.29641 50.1655 5.28916 50.164 5.28243 50.1612C5.27569 50.1584 5.2696 50.1542 5.26453 50.149C5.25946 50.1438 5.25551 50.1376 5.25291 50.1308C5.25032 50.124 5.24914 50.1168 5.24943 50.1096C5.42341 45.4477 5.93093 40.7595 7.31277 36.3718C8.66542 32.0751 10.5987 28.0449 13.1127 24.2812C13.7894 23.2679 14.4838 22.2667 15.196 21.2775C15.3341 21.0852 15.452 20.8831 15.5495 20.671C15.5657 20.6367 15.5587 20.6312 15.5284 20.6546Z" fill="#FCAB09"/>
<path d="M11.1539 68.1008C7.79529 71.0224 2.36407 69.2182 1.76825 64.6665C1.29114 61.0136 4.15487 57.9133 7.83523 58.2051C9.10307 58.305 10.206 58.7769 11.1439 59.621C11.1495 59.6261 11.1541 59.6322 11.1574 59.639C11.1606 59.6458 11.1625 59.653 11.163 59.6603C11.1634 59.6676 11.1623 59.6747 11.1598 59.6813C11.1573 59.6879 11.1534 59.6938 11.1483 59.6987L10.7655 60.056C10.7544 60.0663 10.7395 60.072 10.7236 60.072C10.7077 60.072 10.6919 60.0663 10.679 60.056C7.3204 57.2653 2.22427 59.5933 2.35408 64.014C2.47946 68.2617 7.41027 70.3666 10.6579 67.6813C10.6779 67.6645 10.7036 67.6558 10.73 67.6568C10.7564 67.6578 10.7817 67.6685 10.801 67.6869L11.1561 68.0275C11.161 68.0324 11.1649 68.0381 11.1674 68.0445C11.17 68.0509 11.1712 68.0578 11.171 68.0646C11.1708 68.0715 11.1691 68.0783 11.1662 68.0845C11.1633 68.0907 11.1591 68.0963 11.1539 68.1008Z" fill="#FCAB09"/>
<path d="M43.758 58.9785L38.2468 58.9741C38.2345 58.9741 38.2226 58.9791 38.2139 58.9881C38.2052 58.997 38.2002 59.0091 38.2002 59.0218L38.1625 69.287C38.1626 69.3036 38.1566 69.3195 38.1461 69.3313C38.1355 69.3431 38.1211 69.3499 38.1059 69.3502L37.5856 69.3624C37.5786 69.3627 37.5716 69.3613 37.565 69.3582C37.5584 69.3551 37.5524 69.3504 37.5474 69.3444C37.5423 69.3384 37.5382 69.3312 37.5355 69.3232C37.5327 69.3153 37.5312 69.3067 37.5312 69.2981L37.5245 58.4248C37.5245 58.41 37.5274 58.3952 37.5331 58.3815C37.5387 58.3678 37.547 58.3553 37.5574 58.3448C37.5678 58.3343 37.5801 58.3259 37.5937 58.3203C37.6073 58.3146 37.6219 58.3116 37.6366 58.3116L44.407 58.3194C44.4215 58.3194 44.4353 58.3254 44.4455 58.336C44.4557 58.3466 44.4614 58.361 44.4614 58.376L44.4592 69.2881C44.4593 69.3046 44.4555 69.3209 44.4482 69.3358C44.4409 69.3506 44.4302 69.3636 44.417 69.3737C44.4038 69.3837 44.3885 69.3907 44.3721 69.3939C44.3557 69.3972 44.3389 69.3966 44.3227 69.3924C44.2029 69.3606 44.069 69.3595 43.9211 69.3891C43.9113 69.391 43.9013 69.3907 43.8917 69.3882C43.8821 69.3857 43.8731 69.3811 43.8653 69.3747C43.8576 69.3682 43.8514 69.3601 43.847 69.3509C43.8426 69.3417 43.8403 69.3316 43.8401 69.3214L43.8134 59.034C43.8134 59.0193 43.8076 59.0052 43.7972 58.9948C43.7868 58.9844 43.7727 58.9785 43.758 58.9785Z" fill="#FCAB09"/>
<path d="M27.3678 63.2473C25.7878 64.8762 24.1734 66.4863 22.5468 68.0819C22.5417 68.0869 22.5377 68.0928 22.5351 68.0994C22.5325 68.106 22.5312 68.1131 22.5314 68.1203C22.5316 68.1275 22.5333 68.1346 22.5363 68.1411C22.5393 68.1477 22.5437 68.1536 22.549 68.1585C23.8827 69.3424 25.8277 69.0917 26.9761 67.8078C26.9878 67.7947 27.0027 67.7853 27.019 67.7807C27.0352 67.7762 27.052 67.7767 27.0671 67.7823L27.6119 67.9765C27.6198 67.9792 27.6269 67.9838 27.6326 67.99C27.6383 67.9962 27.6424 68.0037 27.6446 68.012C27.6468 68.0202 27.647 68.029 27.6451 68.0375C27.6433 68.046 27.6395 68.054 27.634 68.0608C26.7057 69.2193 25.5059 69.716 24.0347 69.5511C22.3704 69.3635 21.0278 67.951 20.8081 66.3243C20.3 62.5659 24.6993 60.5908 27.3655 63.1685C27.3762 63.1789 27.3824 63.193 27.3828 63.2077C27.3833 63.2225 27.3778 63.2367 27.3678 63.2473ZM26.3514 63.2095C24.5684 61.9978 22.2406 62.8678 21.6004 64.844C21.3215 65.7036 21.4398 66.598 21.9554 67.5271C21.964 67.5426 21.976 67.5559 21.9906 67.5659C22.0052 67.576 22.0219 67.5825 22.0395 67.585C22.057 67.5875 22.0749 67.5858 22.0917 67.5802C22.1085 67.5746 22.1237 67.5651 22.1363 67.5526L26.3958 63.2894C26.4003 63.2851 26.404 63.28 26.4065 63.2743C26.409 63.2687 26.4102 63.2626 26.4102 63.2566C26.4102 63.2506 26.409 63.2448 26.4065 63.2395C26.404 63.2343 26.4003 63.2297 26.3958 63.2262C26.381 63.2158 26.3662 63.2103 26.3514 63.2095Z" fill="#FCAB09"/>
<path d="M53.9812 65.785C53.9812 66.7953 53.5799 67.7642 52.8655 68.4786C52.1512 69.193 51.1823 69.5943 50.1721 69.5943C49.6719 69.5943 49.1766 69.4958 48.7144 69.3044C48.2523 69.1129 47.8324 68.8323 47.4787 68.4786C47.125 68.1249 46.8444 67.7049 46.653 67.2428C46.4616 66.7806 46.363 66.2852 46.363 65.785C46.363 65.2847 46.4616 64.7894 46.653 64.3272C46.8444 63.865 47.125 63.4451 47.4787 63.0914C47.8324 62.7376 48.2523 62.457 48.7144 62.2656C49.1766 62.0742 49.6719 61.9756 50.1721 61.9756C51.1823 61.9756 52.1512 62.377 52.8655 63.0914C53.5799 63.8058 53.9812 64.7747 53.9812 65.785ZM53.301 65.7872C53.301 64.957 52.9712 64.1608 52.3843 63.5738C51.7973 62.9867 51.0011 62.6569 50.171 62.6569C49.3409 62.6569 48.5447 62.9867 47.9577 63.5738C47.3707 64.1608 47.041 64.957 47.041 65.7872C47.041 66.1983 47.1219 66.6053 47.2792 66.9851C47.4365 67.3649 47.6671 67.71 47.9577 68.0006C48.2484 68.2913 48.5934 68.5219 48.9732 68.6792C49.3529 68.8365 49.76 68.9175 50.171 68.9175C50.582 68.9175 50.9891 68.8365 51.3688 68.6792C51.7486 68.5219 52.0936 68.2913 52.3843 68.0006C52.6749 67.71 52.9055 67.3649 53.0628 66.9851C53.2201 66.6053 53.301 66.1983 53.301 65.7872Z" fill="#FCAB09"/>
<path d="M79.5686 68.1829C79.5686 68.1119 79.5457 68.1037 79.4998 68.1585C77.7978 70.2213 74.5834 70.0371 73.2198 67.708C71.7563 65.208 73.5316 62.0588 76.4164 61.9823C77.645 61.949 78.6777 62.4335 79.5142 63.4359C79.5564 63.4869 79.5779 63.4788 79.5786 63.4115L79.5842 62.6703C79.5845 62.6535 79.5908 62.6375 79.6019 62.6259C79.6129 62.6142 79.6277 62.6078 79.643 62.6081L80.1622 62.6181C80.1768 62.6184 80.1906 62.6252 80.2008 62.637C80.2109 62.6488 80.2166 62.6648 80.2166 62.6813V69.2936C80.2166 69.3102 80.2108 69.3261 80.2004 69.338C80.1901 69.3498 80.1759 69.3566 80.1611 69.3569L79.6319 69.3724C79.6248 69.3725 79.6177 69.3711 79.6112 69.3681C79.6046 69.3651 79.5986 69.3606 79.5935 69.3549C79.5885 69.3492 79.5844 69.3425 79.5817 69.335C79.5789 69.3275 79.5775 69.3195 79.5775 69.3114L79.5686 68.1829ZM73.3862 65.9359C73.566 69.3735 78.2849 70.0215 79.4699 66.8236C79.6485 66.3398 79.6474 65.2069 79.461 64.7286C78.1528 61.3753 73.2009 62.3884 73.3862 65.9359Z" fill="#FCAB09"/>
<path d="M102.314 68.1518C102.314 68.0741 102.29 68.066 102.242 68.1274C101.365 69.2437 100.073 69.7353 98.6737 69.5444C95.4705 69.1094 94.3931 65.188 96.6266 63.0131C98.2577 61.4241 100.833 61.7115 102.252 63.4548C102.299 63.5125 102.323 63.5032 102.324 63.427L102.33 62.6714C102.33 62.6549 102.336 62.6392 102.347 62.6278C102.358 62.6163 102.373 62.6101 102.388 62.6103L102.876 62.6214C102.89 62.6217 102.905 62.6287 102.915 62.641C102.925 62.6532 102.931 62.6697 102.931 62.6869L102.932 69.3158C102.932 69.3256 102.93 69.3352 102.926 69.3442C102.922 69.3532 102.916 69.3613 102.909 69.368C102.902 69.3748 102.893 69.38 102.883 69.3834C102.874 69.3869 102.864 69.3884 102.853 69.3879L102.378 69.3702C102.364 69.3696 102.35 69.3636 102.339 69.3535C102.329 69.3434 102.323 69.3298 102.323 69.3158L102.314 68.1518ZM96.2738 64.7708C95.6391 66.5972 96.8197 68.5579 98.7214 68.8775C100.291 69.1405 101.721 68.204 102.239 66.6993C102.41 66.2044 102.365 65.2002 102.185 64.7286C101.135 61.9778 97.248 61.9667 96.2738 64.7708Z" fill="#FCAB09"/>
<path d="M56.9892 68.5768C55.4569 67.1531 55.3438 64.9017 56.6563 63.3205C58.2397 61.4153 61.1145 61.5906 62.6146 63.5047C62.619 63.5105 62.6221 63.5171 62.6237 63.5241C62.6253 63.5312 62.6254 63.5384 62.6239 63.5452C62.6224 63.5521 62.6193 63.5584 62.615 63.5637C62.6108 63.5689 62.6053 63.5731 62.5991 63.5757L62.0809 63.7921C62.0623 63.7996 62.041 63.8004 62.0198 63.7944C61.9986 63.7885 61.9785 63.7761 61.9622 63.7588C59.4912 61.1123 55.2849 63.7355 56.693 67.0222C57.6139 69.1727 60.4188 69.5633 61.9511 67.8056C61.9628 67.7923 61.9777 67.7826 61.9938 67.7778C62.0098 67.773 62.0263 67.7735 62.041 67.779L62.6046 67.9887C62.6109 67.9909 62.6165 67.9946 62.621 67.9996C62.6255 68.0045 62.6287 68.0105 62.6305 68.0171C62.6322 68.0237 62.6324 68.0307 62.631 68.0376C62.6295 68.0444 62.6266 68.0508 62.6224 68.0564C61.2421 69.8407 58.6857 70.1536 56.9892 68.5768Z" fill="#FCAB09"/>
<path d="M13.1557 69.3813C13.1503 69.3814 13.145 69.3804 13.1401 69.3783C13.1351 69.3762 13.1306 69.3731 13.1267 69.369C13.1229 69.365 13.1199 69.3602 13.1178 69.3548C13.1157 69.3495 13.1146 69.3438 13.1146 69.338V62.7047C13.1146 62.6785 13.1251 62.6533 13.1439 62.6348C13.1626 62.6163 13.188 62.6059 13.2145 62.6059L18.8543 62.6026C18.8693 62.6026 18.8837 62.6085 18.8943 62.6191C18.9049 62.6298 18.9109 62.6442 18.9109 62.6592V69.287C18.9109 69.3038 18.906 69.3202 18.8969 69.3337C18.8877 69.3473 18.8748 69.3573 18.8598 69.3624C18.7555 69.3979 18.6505 69.402 18.5447 69.3746C18.5131 69.3667 18.4777 69.3698 18.4438 69.3835C18.3446 69.4227 18.2958 69.3735 18.2973 69.2359C18.3114 68.0671 18.3091 66.0931 18.2906 63.3138C18.2906 63.2988 18.2848 63.2844 18.2744 63.2738C18.264 63.2632 18.2499 63.2573 18.2352 63.2573H13.8092C13.7942 63.2573 13.7798 63.2633 13.7692 63.2742C13.7586 63.285 13.7526 63.2997 13.7526 63.315L13.7271 69.2992C13.7272 69.3156 13.7217 69.3313 13.7117 69.3431C13.7018 69.3549 13.6882 69.3618 13.6738 69.3624L13.1557 69.3813Z" fill="#FCAB09"/>
<path d="M34.7429 68.7011L34.7507 62.6791C34.7507 62.6625 34.7564 62.6466 34.7668 62.6348C34.7772 62.623 34.7913 62.6162 34.8062 62.6159L35.3265 62.6037C35.3336 62.6035 35.3406 62.605 35.3472 62.6081C35.3538 62.6111 35.3598 62.6157 35.3649 62.6215C35.3699 62.6273 35.3739 62.6342 35.3767 62.6418C35.3795 62.6494 35.3809 62.6576 35.3809 62.6658L35.4075 68.6079C35.4075 68.6253 35.4121 68.6422 35.4207 68.6566C35.4294 68.671 35.4417 68.6822 35.4564 68.6889C35.5806 68.7458 35.7152 68.7654 35.8602 68.7477C35.8671 68.7469 35.8741 68.7475 35.8807 68.7495C35.8873 68.7515 35.8934 68.7548 35.8985 68.7592C35.9037 68.7636 35.9077 68.769 35.9105 68.7751C35.9133 68.7811 35.9147 68.7877 35.9146 68.7943L35.9179 71.939C35.9179 71.9552 35.912 71.9707 35.9013 71.9821C35.8907 71.9936 35.8763 72 35.8613 72L35.3665 71.9989C35.3515 71.9989 35.3371 71.9922 35.3265 71.9804C35.3159 71.9685 35.3099 71.9524 35.3099 71.9357L35.3066 69.4468C35.3066 69.4279 35.2991 69.4099 35.2858 69.3965C35.2724 69.3832 35.2544 69.3757 35.2356 69.3757H29.6656C29.653 69.3757 29.6409 69.3706 29.6319 69.3614C29.623 69.3523 29.6179 69.3399 29.6179 69.3269L29.6168 62.6336C29.6168 62.6261 29.6184 62.6187 29.6215 62.6118C29.6247 62.6049 29.6293 62.5986 29.6352 62.5935C29.641 62.5884 29.6479 62.5845 29.6554 62.5821C29.663 62.5796 29.671 62.5787 29.679 62.5793L30.1982 62.6126C30.2132 62.6134 30.2273 62.6196 30.2376 62.6299C30.2479 62.6403 30.2537 62.6539 30.2537 62.668L30.2515 68.6955C30.2515 68.7104 30.2572 68.7246 30.2673 68.7352C30.2775 68.7457 30.2913 68.7518 30.3059 68.7521L34.6863 68.7577C34.6938 68.7577 34.7011 68.7562 34.708 68.7534C34.7148 68.7505 34.7211 68.7464 34.7263 68.7411C34.7316 68.7358 34.7358 68.7296 34.7386 68.7227C34.7415 68.7159 34.7429 68.7085 34.7429 68.7011Z" fill="#FCAB09"/>
<path d="M86.3 66.0291C86.371 66.0957 86.4431 66.1593 86.5163 66.2199C87.8378 67.3041 86.9979 69.1427 85.4734 69.3546C84.6268 69.4723 83.5183 69.3768 82.6296 69.3713C82.6146 69.3713 82.6002 69.3653 82.5896 69.3547C82.579 69.3441 82.573 69.3297 82.573 69.3147L82.5719 62.7035C82.5719 62.6784 82.5819 62.6543 82.5998 62.6364C82.6176 62.6186 82.6419 62.6084 82.6673 62.6081C83.4048 62.6052 84.1219 62.6048 84.8187 62.607C85.3239 62.6085 85.7001 62.6577 85.9471 62.7546C87.4106 63.3294 87.5671 65.0626 86.3055 65.9581C86.2999 65.9621 86.2953 65.9673 86.2919 65.9733C86.2885 65.9793 86.2864 65.9859 86.2859 65.9927C86.2854 65.9995 86.2864 66.0063 86.2888 66.0126C86.2912 66.0189 86.295 66.0245 86.3 66.0291ZM85.0673 65.6274C86.9479 65.6152 87.0112 63.2894 85.1017 63.2295C84.5262 63.2117 83.9174 63.2092 83.2753 63.2217C83.2572 63.2223 83.24 63.2298 83.2274 63.2427C83.2147 63.2555 83.2077 63.2727 83.2077 63.2905L83.2121 65.5708C83.2121 65.5853 83.2179 65.5993 83.2283 65.6097C83.2387 65.62 83.2528 65.626 83.2676 65.6263C83.8675 65.6307 84.4674 65.6311 85.0673 65.6274ZM86.1968 68.3171C86.9224 67.4283 86.2633 66.4219 85.2537 66.3575C85.0022 66.3413 84.3394 66.3405 83.2654 66.3553C83.2508 66.3556 83.237 66.3617 83.2268 66.3723C83.2167 66.3829 83.211 66.3971 83.211 66.4119L83.2021 68.6922C83.2018 68.707 83.2075 68.7214 83.2179 68.7322C83.2282 68.7429 83.2425 68.7493 83.2576 68.7499C83.9899 68.7854 85.6797 68.9496 86.1968 68.3171Z" fill="#FCAB09"/>
<path d="M91.0133 65.259L89.6851 66.7271C89.6638 66.7506 89.6519 66.7855 89.6518 66.8247L89.653 69.3203C89.653 69.3282 89.6513 69.3361 89.6481 69.3434C89.6449 69.3508 89.6403 69.3574 89.6344 69.363C89.6285 69.3686 89.6215 69.373 89.6138 69.3759C89.6062 69.3789 89.598 69.3803 89.5897 69.3802L89.0638 69.3702C89.0492 69.3699 89.0352 69.3637 89.0249 69.353C89.0145 69.3422 89.0086 69.3277 89.0083 69.3125C89.0017 67.4727 88.9828 65.6285 89.0305 63.7899C89.0394 63.4222 89.0268 63.0549 88.9928 62.688C88.9917 62.6767 88.9931 62.6653 88.9968 62.6545C89.0006 62.6438 89.0066 62.6338 89.0145 62.6254C89.0225 62.6169 89.0321 62.6102 89.0429 62.6055C89.0536 62.6008 89.0653 62.5983 89.0771 62.5981L89.5853 62.597C89.5998 62.597 89.6137 62.6026 89.6241 62.6125C89.6345 62.6225 89.6405 62.6361 89.6407 62.6503L89.6729 65.5708C89.6737 65.6448 89.6984 65.6537 89.7473 65.5975L92.2748 62.6514C92.2872 62.6369 92.3018 62.6253 92.3176 62.6174C92.3333 62.6095 92.3498 62.6056 92.3658 62.6059L93.0559 62.6225C93.0951 62.6233 93.1018 62.6396 93.0759 62.6714L91.5048 64.641C91.4947 64.6538 91.4886 64.6694 91.4874 64.6858C91.4862 64.7022 91.49 64.7187 91.4981 64.733L94.0911 69.3302C94.1163 69.3746 94.1026 69.3961 94.0501 69.3946L93.3899 69.3713C93.3726 69.3706 93.3559 69.3658 93.3415 69.3575C93.3272 69.3491 93.3156 69.3374 93.3078 69.3236L91.0787 65.269C91.0757 65.2632 91.0713 65.2581 91.066 65.2543C91.0607 65.2505 91.0545 65.248 91.0481 65.247C91.0417 65.246 91.0352 65.2466 91.0291 65.2487C91.023 65.2508 91.0176 65.2543 91.0133 65.259Z" fill="#FCAB09"/>
<path d="M67.876 63.3072L67.8793 69.3014C67.8793 69.3099 67.8778 69.3184 67.875 69.3263C67.8722 69.3342 67.8681 69.3413 67.8629 69.3473C67.8578 69.3533 67.8516 69.358 67.8449 69.3612C67.8382 69.3643 67.831 69.3659 67.8238 69.3657L67.3079 69.3547C67.2933 69.3544 67.2795 69.347 67.2693 69.3341C67.2591 69.3212 67.2535 69.3039 67.2535 69.2859L67.2568 63.3238C67.2568 63.302 67.2481 63.2812 67.2325 63.2658C67.2169 63.2504 67.1957 63.2417 67.1736 63.2417L64.5296 63.2384C64.5145 63.2384 64.5001 63.2325 64.4891 63.222C64.4782 63.2115 64.4716 63.1971 64.4708 63.1818L64.4408 62.6814C64.4402 62.6718 64.4416 62.6622 64.4448 62.6532C64.4481 62.6442 64.4531 62.636 64.4597 62.629C64.4662 62.6221 64.4741 62.6165 64.4829 62.6127C64.4917 62.6089 64.5012 62.607 64.5107 62.607H70.6099C70.618 62.607 70.626 62.6085 70.6335 62.6113C70.641 62.6141 70.6478 62.6182 70.6534 62.6234C70.6591 62.6285 70.6636 62.6346 70.6666 62.6414C70.6696 62.6481 70.6711 62.6553 70.6709 62.6625L70.662 63.184C70.662 63.1987 70.6556 63.2128 70.6442 63.2232C70.6327 63.2336 70.6172 63.2395 70.601 63.2395L67.9314 63.2506C67.9167 63.2506 67.9026 63.2566 67.8922 63.2672C67.8818 63.2778 67.876 63.2922 67.876 63.3072Z" fill="#FCAB09"/>
</svg>
